# xmcd
#
# Track frame offsets:
#	150
#	16079
#	37944
#	52662
#	69888
#	95529
#	122859
#	142206
#	159983
#	178807
#	204673
#	219475
#	237886
#	252857
#	275169
#	292622
#
# Disc length: 4144 seconds
#
# Revision: 0
# Processed by: cddbd v1.5.2PL0 Copyright (c) Steve Scherf et al.
# Submitted via: EasyCDDAExtractor 16.0.9.1
#
DISCID=de102e10
DTITLE=Nhieu Nghe Si - VPop Hit - Vol. 1
DYEAR=1900
DGENRE=VPop
TTITLE0=Luong Bang Quang and Thu Thuy - Anh Tin Minh Se Cho Nhau Mot Ki Niem
TTITLE1=Bao Thy and 2B - Cong Chua Bong Bong
TTITLE2=Quang Vinh - The Gioi Dieu Ki
TTITLE3=Pham Quynh Anh and Ung Hoang Phuc - Em Se Song Vi Em
TTITLE4=Ung Hoang Phuc - Gio Anh Hua De Lam Gi
TTITLE5=Huyen Thoai - Hai Tru Mot Bang Khong
TTITLE6=Hoang Hai - Hoa Nang
TTITLE7=Kim - Hoai Bao
TTITLE8=Ly Hai - Loi To Tinh De Thuong
TTITLE9=Bao Thy and Quang Vinh - Ngoi Nha Hoa Hong
TTITLE10=MTV - Song Tinh
TTITLE11=Andree Lee - Tieu Thuyet Tinh Yeu
TTITLE12=Andree Lee and Khang Luan - Tieu Thuyet Mua Dong
TTITLE13=Dang Khoi - Tin Nhan Tinh Yeu
TTITLE14=Quang Vinh - Tinh Yeu Dieu Ki
TTITLE15=Quang Vinh and Nhu Y - Tu Tin Noi Loi Yeu Thuong
EXTD=
EXTT0=
EXTT1=
EXTT2=
EXTT3=
EXTT4=
EXTT5=
EXTT6=
EXTT7=
EXTT8=
EXTT9=
EXTT10=
EXTT11=
EXTT12=
EXTT13=
EXTT14=
EXTT15=
PLAYORDER=
